<svg style="display: none;" aria-hidden="true" xmlns="http://www.w3.org/2000/svg" xmlns:xlink="http://www.w3.org/1999/xlink"><symbol viewBox="0 0 12 22" fill="none" id="svg-arrow"><path fill-rule="evenodd" clip-rule="evenodd" d="M0.292893 0.292893C0.683417 -0.0976311 1.31658 -0.0976311 1.70711 0.292893L11.7071 10.2929C12.0976 10.6834 12.0976 11.3166 11.7071 11.7071L1.70711 21.7071C1.31658 22.0976 0.683417 22.0976 0.292893 21.7071C-0.0976311 21.3166 -0.0976311 20.6834 0.292893 20.2929L9.58579 11L0.292893 1.70711C-0.0976311 1.31658 -0.0976311 0.683417 0.292893 0.292893Z" fill="currentColor"/></symbol><symbol viewBox="0 0 32 32" fill="none" id="svg-btn-arrow"><path fill-rule="evenodd" clip-rule="evenodd" d="M4 16C4 15.4477 4.44772 15 5 15H27C27.5523 15 28 15.4477 28 16C28 16.5523 27.5523 17 27 17H5C4.44772 17 4 16.5523 4 16Z" fill="currentColor"/><path fill-rule="evenodd" clip-rule="evenodd" d="M17.2929 6.29289C17.6834 5.90237 18.3166 5.90237 18.7071 6.29289L27.7071 15.2929C28.0976 15.6834 28.0976 16.3166 27.7071 16.7071L18.7071 25.7071C18.3166 26.0976 17.6834 26.0976 17.2929 25.7071C16.9024 25.3166 16.9024 24.6834 17.2929 24.2929L25.5858 16L17.2929 7.70711C16.9024 7.31658 16.9024 6.68342 17.2929 6.29289Z" fill="currentColor"/></symbol><symbol viewBox="0 0 30 30" fill="none" id="svg-calendar"><rect x="3.75" y="7.5" width="22.5" height="18.75" rx="2" stroke="currentColor" stroke-width="2"/><path d="M5 13.75H25M11.25 20H18.75M10 3.75L10 8.75M20 3.75L20 8.75" stroke="currentColor" stroke-width="2" stroke-linecap="round"/></symbol><symbol viewBox="0 0 30 30" fill="none" id="svg-clock"><circle cx="15" cy="15" r="11" stroke="currentColor" stroke-width="2"/><path d="M20.625 15H15.25C15.1119 15 15 14.8881 15 14.75V10.625" stroke="currentColor" stroke-width="2" stroke-linecap="round"/></symbol><symbol viewBox="0 0 30 30" fill="none" id="svg-pin"><path d="M15.4002 24.805L14.946 23.9141L14.946 23.9141L15.4002 24.805ZM14.5998 24.805L15.054 23.9141L15.054 23.9141L14.5998 24.805ZM22.75 13.75C22.75 16.5737 21.2854 18.8786 19.514 20.634C17.7445 22.3876 15.7588 23.4997 14.946 23.9141L15.8544 25.6959C16.7557 25.2364 18.9449 24.0137 20.9218 22.0546C22.8968 20.0974 24.75 17.3118 24.75 13.75H22.75ZM15 6C19.2802 6 22.75 9.46979 22.75 13.75H24.75C24.75 8.36522 20.3848 4 15 4V6ZM7.25 13.75C7.25 9.46979 10.7198 6 15 6V4C9.61522 4 5.25 8.36522 5.25 13.75H7.25ZM15.054 23.9141C14.2412 23.4997 12.2555 22.3876 10.486 20.634C8.71463 18.8786 7.25 16.5737 7.25 13.75H5.25C5.25 17.3118 7.1032 20.0974 9.07819 22.0546C11.0551 24.0137 13.2443 25.2364 14.1456 25.6959L15.054 23.9141ZM14.946 23.9141C14.9589 23.9076 14.9777 23.9021 15 23.9021C15.0223 23.9021 15.0411 23.9076 15.054 23.9141L14.1456 25.6959C14.6847 25.9708 15.3153 25.9708 15.8544 25.6959L14.946 23.9141ZM17.75 13.75C17.75 15.2688 16.5188 16.5 15 16.5V18.5C17.6234 18.5 19.75 16.3734 19.75 13.75H17.75ZM15 11C16.5188 11 17.75 12.2312 17.75 13.75H19.75C19.75 11.1266 17.6234 9 15 9V11ZM12.25 13.75C12.25 12.2312 13.4812 11 15 11V9C12.3766 9 10.25 11.1266 10.25 13.75H12.25ZM15 16.5C13.4812 16.5 12.25 15.2688 12.25 13.75H10.25C10.25 16.3734 12.3766 18.5 15 18.5V16.5Z" fill="currentColor"/></symbol><symbol viewBox="0 0 24 24" fill="none" id="svg-user"><path d="M17.7956 20.7059C17.4537 19.6427 16.7004 18.7033 15.6526 18.0332C14.6047 17.3632 13.3208 17 12 17C10.6792 17 9.3953 17.3632 8.34743 18.0332C7.29957 18.7033 6.5463 19.6427 6.20445 20.7059" stroke="currentColor" stroke-width="2"/><circle cx="12" cy="10" r="3" stroke="currentColor" stroke-width="2" stroke-linecap="round"/><rect x="3" y="3" width="18" height="18" rx="3" stroke="currentColor" stroke-width="2"/></symbol></svg>