<svg width="203" height="246" viewBox="0 0 203 246" fill="none" xmlns="http://www.w3.org/2000/svg">
<g opacity="0.33" clip-path="url(#clip0_1_194)">
<path d="M135.284 203.235L106.382 246L129.155 246C134.525 246.001 139.812 244.685 144.555 242.167C149.298 239.65 153.351 236.008 156.359 231.561L185.261 188.785L162.488 188.785C157.118 188.785 151.829 190.102 147.086 192.621C142.343 195.141 138.29 198.785 135.284 203.235V203.235Z" fill="#C2CFDB"/>
<path d="M-1.99999 148.694L58.1822 148.694C71.8326 148.694 85.2745 145.346 97.3296 138.943C109.385 132.541 119.685 123.28 127.327 111.971L203 0L98.4892 -4.56831e-06L-1.99999 148.694Z" fill="#9CB1C6"/>
<path d="M50.4296 71.1161L2.36643 -2.10091e-06L-2.00002 -2.29177e-06L-2.00002 148.184L-1.82765 148.439L50.4296 71.1161Z" fill="#C2CFDB"/>
</g>
<defs>
<clipPath id="clip0_1_194">
<rect width="246" height="205" fill="white" transform="translate(203) rotate(90)"/>
</clipPath>
</defs>
</svg>
