<svg width="253" height="313" viewBox="0 0 253 313" fill="none" xmlns="http://www.w3.org/2000/svg">
<g opacity="0.33" clip-path="url(#clip0_1_201)">
<path d="M181.091 88.3045L240.667 1.11485e-07L193.729 -1.94021e-06C182.659 -0.000638302 171.757 2.71889 161.98 7.92012C152.203 13.1214 143.849 20.6454 137.651 29.8326L78.0684 118.137L125.013 118.137C136.084 118.137 146.986 115.418 156.763 110.217C166.54 105.015 174.893 97.4915 181.091 88.3045V88.3045Z" fill="#C2CFDB"/>
<path d="M51.5077 186.431L81.2954 142.277L57.825 142.277C52.2898 142.277 46.8392 143.638 41.9511 146.239C37.0629 148.839 32.8864 152.601 29.7877 157.195L-8.26978e-06 201.345L23.4705 201.345C29.0053 201.345 34.4557 199.985 39.3438 197.385C44.2319 194.785 48.4086 191.024 51.5077 186.431V186.431Z" fill="#9CB1C6"/>
<path d="M269 159.489L206.975 159.489C192.906 159.489 179.052 162.946 166.628 169.556C154.204 176.166 143.588 185.727 135.712 197.402L57.7213 313L165.415 313L269 159.489Z" fill="#9CB1C6"/>
<path d="M269 160.019L268.822 159.756L214.965 239.58L264.5 313L269 313L269 160.019Z" fill="#C2CFDB"/>
</g>
<defs>
<clipPath id="clip0_1_201">
<rect width="313" height="253" fill="white" transform="translate(253) rotate(90)"/>
</clipPath>
</defs>
</svg>
