<svg width="275" height="42" viewBox="0 0 275 42" fill="none" xmlns="http://www.w3.org/2000/svg">
<path opacity="0.75" d="M49.1016 4.625V16H46.7656V4.625H49.1016ZM52.6016 4.625V6.46094H43.3203V4.625H52.6016ZM63.0625 10.0469V10.5859C63.0625 11.4505 62.9453 12.2266 62.7109 12.9141C62.4766 13.6016 62.1458 14.1875 61.7188 14.6719C61.2917 15.151 60.7812 15.5182 60.1875 15.7734C59.599 16.0286 58.9453 16.1562 58.2266 16.1562C57.513 16.1562 56.8594 16.0286 56.2656 15.7734C55.6771 15.5182 55.1667 15.151 54.7344 14.6719C54.3021 14.1875 53.9661 13.6016 53.7266 12.9141C53.4922 12.2266 53.375 11.4505 53.375 10.5859V10.0469C53.375 9.17708 53.4922 8.40104 53.7266 7.71875C53.9609 7.03125 54.2917 6.44531 54.7188 5.96094C55.151 5.47656 55.6615 5.10677 56.25 4.85156C56.8438 4.59635 57.4974 4.46875 58.2109 4.46875C58.9297 4.46875 59.5833 4.59635 60.1719 4.85156C60.7656 5.10677 61.276 5.47656 61.7031 5.96094C62.1354 6.44531 62.4688 7.03125 62.7031 7.71875C62.9427 8.40104 63.0625 9.17708 63.0625 10.0469ZM60.6953 10.5859V10.0312C60.6953 9.42708 60.6406 8.89583 60.5312 8.4375C60.4219 7.97917 60.2604 7.59375 60.0469 7.28125C59.8333 6.96875 59.5729 6.73438 59.2656 6.57812C58.9583 6.41667 58.6068 6.33594 58.2109 6.33594C57.8151 6.33594 57.4635 6.41667 57.1562 6.57812C56.8542 6.73438 56.5964 6.96875 56.3828 7.28125C56.1745 7.59375 56.0156 7.97917 55.9062 8.4375C55.7969 8.89583 55.7422 9.42708 55.7422 10.0312V10.5859C55.7422 11.1849 55.7969 11.7161 55.9062 12.1797C56.0156 12.638 56.1771 13.026 56.3906 13.3438C56.6042 13.6562 56.8646 13.8932 57.1719 14.0547C57.4792 14.2161 57.8307 14.2969 58.2266 14.2969C58.6224 14.2969 58.974 14.2161 59.2812 14.0547C59.5885 13.8932 59.8464 13.6562 60.0547 13.3438C60.263 13.026 60.4219 12.638 60.5312 12.1797C60.6406 11.7161 60.6953 11.1849 60.6953 10.5859ZM69.1797 11.9453H66.2812V10.1172H69.1797C69.6276 10.1172 69.9922 10.0443 70.2734 9.89844C70.5547 9.7474 70.7604 9.53906 70.8906 9.27344C71.0208 9.00781 71.0859 8.70833 71.0859 8.375C71.0859 8.03646 71.0208 7.72135 70.8906 7.42969C70.7604 7.13802 70.5547 6.90365 70.2734 6.72656C69.9922 6.54948 69.6276 6.46094 69.1797 6.46094H67.0938V16H64.75V4.625H69.1797C70.0703 4.625 70.8333 4.78646 71.4688 5.10938C72.1094 5.42708 72.599 5.86719 72.9375 6.42969C73.276 6.99219 73.4453 7.63542 73.4453 8.35938C73.4453 9.09375 73.276 9.72917 72.9375 10.2656C72.599 10.8021 72.1094 11.2161 71.4688 11.5078C70.8333 11.7995 70.0703 11.9453 69.1797 11.9453ZM82.5312 4.625V6.46094H77.4062V16H75.0703V4.625H82.5312ZM92.7969 10.0469V10.5859C92.7969 11.4505 92.6797 12.2266 92.4453 12.9141C92.2109 13.6016 91.8802 14.1875 91.4531 14.6719C91.026 15.151 90.5156 15.5182 89.9219 15.7734C89.3333 16.0286 88.6797 16.1562 87.9609 16.1562C87.2474 16.1562 86.5938 16.0286 86 15.7734C85.4115 15.5182 84.901 15.151 84.4688 14.6719C84.0365 14.1875 83.7005 13.6016 83.4609 12.9141C83.2266 12.2266 83.1094 11.4505 83.1094 10.5859V10.0469C83.1094 9.17708 83.2266 8.40104 83.4609 7.71875C83.6953 7.03125 84.026 6.44531 84.4531 5.96094C84.8854 5.47656 85.3958 5.10677 85.9844 4.85156C86.5781 4.59635 87.2318 4.46875 87.9453 4.46875C88.6641 4.46875 89.3177 4.59635 89.9062 4.85156C90.5 5.10677 91.0104 5.47656 91.4375 5.96094C91.8698 6.44531 92.2031 7.03125 92.4375 7.71875C92.6771 8.40104 92.7969 9.17708 92.7969 10.0469ZM90.4297 10.5859V10.0312C90.4297 9.42708 90.375 8.89583 90.2656 8.4375C90.1562 7.97917 89.9948 7.59375 89.7812 7.28125C89.5677 6.96875 89.3073 6.73438 89 6.57812C88.6927 6.41667 88.3411 6.33594 87.9453 6.33594C87.5495 6.33594 87.1979 6.41667 86.8906 6.57812C86.5885 6.73438 86.3307 6.96875 86.1172 7.28125C85.9089 7.59375 85.75 7.97917 85.6406 8.4375C85.5312 8.89583 85.4766 9.42708 85.4766 10.0312V10.5859C85.4766 11.1849 85.5312 11.7161 85.6406 12.1797C85.75 12.638 85.9115 13.026 86.125 13.3438C86.3385 13.6562 86.599 13.8932 86.9062 14.0547C87.2135 14.2161 87.5651 14.2969 87.9609 14.2969C88.3568 14.2969 88.7083 14.2161 89.0156 14.0547C89.3229 13.8932 89.5807 13.6562 89.7891 13.3438C89.9974 13.026 90.1562 12.638 90.2656 12.1797C90.375 11.7161 90.4297 11.1849 90.4297 10.5859ZM98.9375 11.0078H96.0156L96 9.39844H98.4531C98.8854 9.39844 99.2396 9.34375 99.5156 9.23438C99.7917 9.11979 99.9974 8.95573 100.133 8.74219C100.273 8.52344 100.344 8.25781 100.344 7.94531C100.344 7.59115 100.276 7.30469 100.141 7.08594C100.01 6.86719 99.8047 6.70833 99.5234 6.60938C99.2474 6.51042 98.8906 6.46094 98.4531 6.46094H96.8281V16H94.4844V4.625H98.4531C99.1146 4.625 99.7057 4.6875 100.227 4.8125C100.753 4.9375 101.198 5.1276 101.562 5.38281C101.927 5.63802 102.206 5.96094 102.398 6.35156C102.591 6.73698 102.688 7.19531 102.688 7.72656C102.688 8.19531 102.581 8.6276 102.367 9.02344C102.159 9.41927 101.828 9.74219 101.375 9.99219C100.927 10.2422 100.341 10.3802 99.6172 10.4062L98.9375 11.0078ZM98.8359 16H95.375L96.2891 14.1719H98.8359C99.2474 14.1719 99.5833 14.1068 99.8438 13.9766C100.104 13.8411 100.297 13.6589 100.422 13.4297C100.547 13.2005 100.609 12.9375 100.609 12.6406C100.609 12.3073 100.552 12.0182 100.438 11.7734C100.328 11.5286 100.151 11.3411 99.9062 11.2109C99.6615 11.0755 99.3385 11.0078 98.9375 11.0078H96.6797L96.6953 9.39844H99.5078L100.047 10.0312C100.74 10.0208 101.297 10.1432 101.719 10.3984C102.146 10.6484 102.456 10.974 102.648 11.375C102.846 11.776 102.945 12.2057 102.945 12.6641C102.945 13.3932 102.786 14.0078 102.469 14.5078C102.151 15.0026 101.685 15.375 101.07 15.625C100.461 15.875 99.7161 16 98.8359 16ZM114.047 10.0469V10.5859C114.047 11.4505 113.93 12.2266 113.695 12.9141C113.461 13.6016 113.13 14.1875 112.703 14.6719C112.276 15.151 111.766 15.5182 111.172 15.7734C110.583 16.0286 109.93 16.1562 109.211 16.1562C108.497 16.1562 107.844 16.0286 107.25 15.7734C106.661 15.5182 106.151 15.151 105.719 14.6719C105.286 14.1875 104.951 13.6016 104.711 12.9141C104.477 12.2266 104.359 11.4505 104.359 10.5859V10.0469C104.359 9.17708 104.477 8.40104 104.711 7.71875C104.945 7.03125 105.276 6.44531 105.703 5.96094C106.135 5.47656 106.646 5.10677 107.234 4.85156C107.828 4.59635 108.482 4.46875 109.195 4.46875C109.914 4.46875 110.568 4.59635 111.156 4.85156C111.75 5.10677 112.26 5.47656 112.688 5.96094C113.12 6.44531 113.453 7.03125 113.688 7.71875C113.927 8.40104 114.047 9.17708 114.047 10.0469ZM111.68 10.5859V10.0312C111.68 9.42708 111.625 8.89583 111.516 8.4375C111.406 7.97917 111.245 7.59375 111.031 7.28125C110.818 6.96875 110.557 6.73438 110.25 6.57812C109.943 6.41667 109.591 6.33594 109.195 6.33594C108.799 6.33594 108.448 6.41667 108.141 6.57812C107.839 6.73438 107.581 6.96875 107.367 7.28125C107.159 7.59375 107 7.97917 106.891 8.4375C106.781 8.89583 106.727 9.42708 106.727 10.0312V10.5859C106.727 11.1849 106.781 11.7161 106.891 12.1797C107 12.638 107.161 13.026 107.375 13.3438C107.589 13.6562 107.849 13.8932 108.156 14.0547C108.464 14.2161 108.815 14.2969 109.211 14.2969C109.607 14.2969 109.958 14.2161 110.266 14.0547C110.573 13.8932 110.831 13.6562 111.039 13.3438C111.247 13.026 111.406 12.638 111.516 12.1797C111.625 11.7161 111.68 11.1849 111.68 10.5859ZM120.031 10.2344V12H115.617V10.2344H120.031ZM131.312 4.625V16H128.969V6.46094H124.398V16H122.055V4.625H131.312ZM137.789 11.9453H134.891V10.1172H137.789C138.237 10.1172 138.602 10.0443 138.883 9.89844C139.164 9.7474 139.37 9.53906 139.5 9.27344C139.63 9.00781 139.695 8.70833 139.695 8.375C139.695 8.03646 139.63 7.72135 139.5 7.42969C139.37 7.13802 139.164 6.90365 138.883 6.72656C138.602 6.54948 138.237 6.46094 137.789 6.46094H135.703V16H133.359V4.625H137.789C138.68 4.625 139.443 4.78646 140.078 5.10938C140.719 5.42708 141.208 5.86719 141.547 6.42969C141.885 6.99219 142.055 7.63542 142.055 8.35938C142.055 9.09375 141.885 9.72917 141.547 10.2656C141.208 10.8021 140.719 11.2161 140.078 11.5078C139.443 11.7995 138.68 11.9453 137.789 11.9453ZM153.016 10.0469V10.5859C153.016 11.4505 152.898 12.2266 152.664 12.9141C152.43 13.6016 152.099 14.1875 151.672 14.6719C151.245 15.151 150.734 15.5182 150.141 15.7734C149.552 16.0286 148.898 16.1562 148.18 16.1562C147.466 16.1562 146.812 16.0286 146.219 15.7734C145.63 15.5182 145.12 15.151 144.688 14.6719C144.255 14.1875 143.919 13.6016 143.68 12.9141C143.445 12.2266 143.328 11.4505 143.328 10.5859V10.0469C143.328 9.17708 143.445 8.40104 143.68 7.71875C143.914 7.03125 144.245 6.44531 144.672 5.96094C145.104 5.47656 145.615 5.10677 146.203 4.85156C146.797 4.59635 147.451 4.46875 148.164 4.46875C148.883 4.46875 149.536 4.59635 150.125 4.85156C150.719 5.10677 151.229 5.47656 151.656 5.96094C152.089 6.44531 152.422 7.03125 152.656 7.71875C152.896 8.40104 153.016 9.17708 153.016 10.0469ZM150.648 10.5859V10.0312C150.648 9.42708 150.594 8.89583 150.484 8.4375C150.375 7.97917 150.214 7.59375 150 7.28125C149.786 6.96875 149.526 6.73438 149.219 6.57812C148.911 6.41667 148.56 6.33594 148.164 6.33594C147.768 6.33594 147.417 6.41667 147.109 6.57812C146.807 6.73438 146.549 6.96875 146.336 7.28125C146.128 7.59375 145.969 7.97917 145.859 8.4375C145.75 8.89583 145.695 9.42708 145.695 10.0312V10.5859C145.695 11.1849 145.75 11.7161 145.859 12.1797C145.969 12.638 146.13 13.026 146.344 13.3438C146.557 13.6562 146.818 13.8932 147.125 14.0547C147.432 14.2161 147.784 14.2969 148.18 14.2969C148.576 14.2969 148.927 14.2161 149.234 14.0547C149.542 13.8932 149.799 13.6562 150.008 13.3438C150.216 13.026 150.375 12.638 150.484 12.1797C150.594 11.7161 150.648 11.1849 150.648 10.5859ZM155.773 4.625H157.758L160.68 12.9766L163.602 4.625H165.586L161.477 16H159.883L155.773 4.625ZM154.703 4.625H156.68L157.039 12.7656V16H154.703V4.625ZM164.68 4.625H166.664V16H164.32V12.7656L164.68 4.625ZM170.266 8.77344H172.922C173.812 8.77344 174.581 8.92188 175.227 9.21875C175.878 9.51562 176.375 9.93229 176.719 10.4688C177.068 11.0052 177.242 11.6302 177.242 12.3438C177.242 12.8854 177.143 13.3802 176.945 13.8281C176.747 14.2708 176.461 14.6562 176.086 14.9844C175.711 15.3073 175.258 15.5573 174.727 15.7344C174.195 15.9115 173.594 16 172.922 16H168.734V4.625H171.086V14.1719H172.922C173.365 14.1719 173.732 14.0885 174.023 13.9219C174.32 13.7552 174.542 13.5339 174.688 13.2578C174.833 12.9766 174.906 12.6667 174.906 12.3281C174.906 12.0052 174.833 11.7135 174.688 11.4531C174.542 11.1875 174.32 10.9792 174.023 10.8281C173.732 10.6771 173.365 10.6016 172.922 10.6016H170.266V8.77344ZM180.586 4.625V16H178.25V4.625H180.586ZM182.602 4.625H184.953V14.1719H188.125V4.625H190.469V14.1719H193.609V4.625H195.945V16H182.602V4.625ZM205.68 4.625V6.46094H200.023V4.625H205.68ZM207.352 4.625V16H205.008V4.625H207.352ZM199.727 4.625H202.062L201.773 10.3359C201.732 11.1901 201.651 11.9323 201.531 12.5625C201.417 13.1927 201.26 13.7292 201.062 14.1719C200.865 14.6094 200.62 14.9635 200.328 15.2344C200.042 15.5 199.703 15.6953 199.312 15.8203C198.922 15.9401 198.477 16 197.977 16H197.398V14.1719L197.695 14.1484C197.951 14.1224 198.174 14.0547 198.367 13.9453C198.56 13.8359 198.724 13.6719 198.859 13.4531C199 13.2344 199.115 12.9557 199.203 12.6172C199.297 12.2734 199.37 11.8542 199.422 11.3594C199.479 10.8646 199.518 10.2865 199.539 9.625L199.727 4.625ZM217.023 14.1719V16H210.969V14.1719H217.023ZM211.734 4.625V16H209.391V4.625H211.734ZM216.234 9.25781V11.0391H210.969V9.25781H216.234ZM217.016 4.625V6.46094H210.969V4.625H217.016ZM225.977 9.25781V11.0859H220.039V9.25781H225.977ZM220.734 4.625V16H218.391V4.625H220.734ZM227.648 4.625V16H225.312V4.625H227.648ZM237.273 9.25781V11.0859H231.336V9.25781H237.273ZM232.031 4.625V16H229.688V4.625H232.031ZM238.945 4.625V16H236.609V4.625H238.945ZM245.75 6.57031L242.656 16H240.164L244.391 4.625H245.977L245.75 6.57031ZM248.32 16L245.219 6.57031L244.969 4.625H246.57L250.82 16H248.32ZM248.18 11.7656V13.6016H242.172V11.7656H248.18ZM257.922 11.8672H254.828L254.039 11.5391C253.148 11.2578 252.466 10.8359 251.992 10.2734C251.523 9.71094 251.289 8.99479 251.289 8.125C251.289 7.35938 251.458 6.71875 251.797 6.20312C252.141 5.68229 252.625 5.28906 253.25 5.02344C253.88 4.75781 254.628 4.625 255.492 4.625H259.461V16H257.109V6.46094H255.492C254.852 6.46094 254.38 6.61979 254.078 6.9375C253.776 7.25521 253.625 7.70573 253.625 8.28906C253.625 8.71615 253.695 9.06771 253.836 9.34375C253.977 9.61458 254.182 9.81771 254.453 9.95312C254.724 10.0833 255.065 10.1484 255.477 10.1484H257.914L257.922 11.8672ZM255.664 10.9219L253.141 16H250.602L253.133 10.9219H255.664ZM53.2812 25.625V37H50.9375V27.4609H46.3672V37H44.0234V25.625H53.2812ZM59.9531 27.5703L56.8594 37H54.3672L58.5938 25.625H60.1797L59.9531 27.5703ZM62.5234 37L59.4219 27.5703L59.1719 25.625H60.7734L65.0234 37H62.5234ZM62.3828 32.7656V34.6016H56.375V32.7656H62.3828ZM73.8047 25.625V27.4609H68.1484V25.625H73.8047ZM75.4766 25.625V37H73.1328V25.625H75.4766ZM67.8516 25.625H70.1875L69.8984 31.3359C69.8568 32.1901 69.776 32.9323 69.6562 33.5625C69.5417 34.1927 69.3854 34.7292 69.1875 35.1719C68.9896 35.6094 68.7448 35.9635 68.4531 36.2344C68.1667 36.5 67.8281 36.6953 67.4375 36.8203C67.0469 36.9401 66.6016 37 66.1016 37H65.5234V35.1719L65.8203 35.1484C66.0755 35.1224 66.2995 35.0547 66.4922 34.9453C66.6849 34.8359 66.849 34.6719 66.9844 34.4531C67.125 34.2344 67.2396 33.9557 67.3281 33.6172C67.4219 33.2734 67.4948 32.8542 67.5469 32.3594C67.6042 31.8646 67.6432 31.2865 67.6641 30.625L67.8516 25.625ZM82.2812 27.5703L79.1875 37H76.6953L80.9219 25.625H82.5078L82.2812 27.5703ZM84.8516 37L81.75 27.5703L81.5 25.625H83.1016L87.3516 37H84.8516ZM84.7109 32.7656V34.6016H78.7031V32.7656H84.7109ZM92.5234 25.625V37H90.1875V25.625H92.5234ZM96.0234 25.625V27.4609H86.7422V25.625H96.0234ZM101.141 27.5703L98.0469 37H95.5547L99.7812 25.625H101.367L101.141 27.5703ZM103.711 37L100.609 27.5703L100.359 25.625H101.961L106.211 37H103.711ZM103.57 32.7656V34.6016H97.5625V32.7656H103.57ZM118.719 25.625V27.4609H113.594V37H111.258V25.625H118.719ZM120.875 31.2344V33H116.461V31.2344H120.875ZM125.242 25.625V37H122.898V25.625H125.242ZM131.945 25.625L127.586 32.3047H124.719L124.422 30.2188H126.336L129.102 25.625H131.945ZM129.531 37L126.344 31.9141L127.969 30.2422L132.312 37H129.531ZM141.844 27.5703L138.75 37H136.258L140.484 25.625H142.07L141.844 27.5703ZM144.414 37L141.312 27.5703L141.062 25.625H142.664L146.914 37H144.414ZM144.273 32.7656V34.6016H138.266V32.7656H144.273ZM155.555 30.2578V32.0859H149.617V30.2578H155.555ZM150.312 25.625V37H147.969V25.625H150.312ZM157.227 25.625V37H154.891V25.625H157.227ZM164.031 27.5703L160.938 37H158.445L162.672 25.625H164.258L164.031 27.5703ZM166.602 37L163.5 27.5703L163.25 25.625H164.852L169.102 37H166.602ZM166.461 32.7656V34.6016H160.453V32.7656H166.461ZM179.422 25.625V37H177.078V27.4609H172.508V37H170.164V25.625H179.422ZM186.094 27.5703L183 37H180.508L184.734 25.625H186.32L186.094 27.5703ZM188.664 37L185.562 27.5703L185.312 25.625H186.914L191.164 37H188.664ZM188.523 32.7656V34.6016H182.516V32.7656H188.523Z" fill="white"/>
<path d="M2.99004 5.9672H6.89349C6.89349 5.85473 6.85614 5.64855 6.78143 5.53609C6.42657 4.93627 5.1939 5.02999 4.3908 4.88004C3.43829 4.71134 1.51458 4.39269 1.51458 4.39269L1.34649 4.3552V4.44892C1.4212 5.27367 2.09356 5.92971 2.93401 5.9672H2.99004ZM5.84759 9.94096L5.75421 9.71603C5.58612 9.22868 5.56744 8.47892 5.6795 8.01031L3.38226 7.99157L3.40093 8.06654C3.5877 8.96626 4.29742 9.67854 5.21258 9.86598C5.30596 9.86598 5.69818 9.94096 5.84759 9.94096ZM24.4497 7.97282L22.3392 7.99157C22.4512 8.5164 22.4326 9.35989 22.2084 9.82849L22.1711 9.92221L22.5446 9.88473C23.5905 9.79101 24.4123 9.04124 24.6177 8.0478L24.6364 7.97282H24.4497ZM25.6263 6.37957H21.2559C21.4614 6.79194 21.8909 7.18557 22.1524 7.5792L22.1898 7.65417H24.2069C24.3189 7.65417 24.4496 7.61668 24.487 7.61668C25.1033 7.50422 25.6076 7.05436 25.7944 6.45455V6.37957H25.6263ZM22.5633 11.8716C22.0403 11.8716 21.5548 11.6279 21.0878 11.253L20.7143 10.8032L18.8466 8.64761C18.7159 8.53515 18.6038 8.42268 18.4731 8.31022C17.3338 7.05436 15.9517 5.94846 13.9346 5.94846C12.3658 5.94846 11.1891 6.62324 10.1993 7.52296C9.86309 7.80412 9.56427 8.12278 9.28411 8.42268L9.1347 8.55389L6.91217 11.1218L6.83746 11.2156C6.37054 11.6092 5.88494 11.8716 5.34332 11.8716H5.32464L5.34332 11.8903H5.32464C5.32464 12.1528 5.51141 12.359 5.75421 12.4152H22.1524C22.3765 12.3402 22.5633 12.1153 22.5633 11.8716ZM14.7938 34.2709C14.4389 34.0272 14.028 33.7835 13.6358 33.5398C13.1315 33.2399 12.6086 32.9213 12.1043 32.5839C10.4421 33.7835 9.47088 35.1706 9.54559 36.3889C9.67633 38.3946 12.2164 39.2943 12.2164 39.2943C12.2164 39.2943 12.123 39.2381 11.9922 39.1443C12.1977 39.2381 12.3284 39.2943 12.3284 39.2943C12.3284 39.2943 11.0024 38.6008 10.909 36.9325C10.8716 36.2015 11.3759 35.1893 12.4218 34.3458C12.6459 34.1584 12.9074 33.9709 13.1876 33.8022L13.337 40.3252C13.337 40.7001 13.6358 41 14.0093 41C14.3829 41 14.663 40.7001 14.663 40.3252V40.2315L14.7938 34.2709ZM12.9448 24.374C12.814 24.3177 12.7206 24.2427 12.6086 24.1865C12.7206 24.2615 12.8327 24.3177 12.9448 24.374ZM12.0296 23.8679L12.2164 23.9616L12.1603 23.9428C12.4218 24.0928 12.814 24.299 12.9634 24.3927L13.0195 24.4302C13.7665 24.8613 14.4576 25.2924 14.9992 25.761C15.877 26.5108 16.4373 27.3355 16.3439 28.2915C16.3066 28.7601 15.933 29.4911 15.1299 30.2409L15.0926 31.8716L15.1486 31.9091C15.1673 31.9278 15.3541 32.059 15.5408 32.1903C17.2964 31.0094 18.8093 29.5286 18.3237 27.0169C18.2303 26.492 18.0062 26.0047 17.6887 25.5173C17.2778 24.9175 16.6988 24.3365 16.1011 23.8116C15.1673 23.0056 14.084 22.2933 12.8701 21.5436C12.5712 21.3561 12.2537 21.15 11.9362 20.9625C11.7681 20.8688 11.6187 20.7563 11.4506 20.6626C11.0958 20.4377 10.7409 20.2128 10.3674 19.9878C5.82891 17.12 10.8903 15.5642 10.4608 17.6261C11.0211 17.4948 12.5339 16.3327 11.2825 14.9082C10.5355 14.0459 8.31292 13.5586 6.7254 15.0019C6.44525 15.2643 6.22112 15.5267 6.05303 15.8079C4.85772 17.4761 5.45538 19.538 7.13629 21.0187C7.21099 21.075 7.2857 21.15 7.36041 21.2062C8.51837 22.1247 10.2927 22.9494 11.9736 23.8491L12.0296 23.8679ZM12.6833 12.6401L12.702 12.7151V12.7526L12.9074 21.2437C13.7105 21.731 14.4389 22.1996 15.0926 22.6682L15.1299 21.4124L15.3354 12.7338L15.3541 12.6589H12.6833V12.6401ZM21.4053 15.1518C21.2746 15.0394 21.1439 14.9456 21.0131 14.8519C19.463 13.6523 17.4085 14.1396 16.6988 14.9644C15.7276 16.089 16.4747 17.0637 17.091 17.4761C17.2964 17.6448 17.5206 17.7573 17.67 17.7948L17.6513 17.6823C17.5579 16.8013 18.5104 16.6701 19.1454 17.0637C19.7618 17.5698 19.8365 18.657 17.614 20.0628C16.8482 20.5501 16.0825 21.0187 15.3354 21.4874L15.2794 22.8932C15.6155 23.1368 15.9517 23.3993 16.2692 23.6804L16.2879 23.6992C17.9875 22.8182 19.7431 22.0122 20.8637 21.0375C22.7874 19.313 23.3104 16.8763 21.4053 15.1518ZM26.4481 4.39269C25.5142 4.54264 24.5617 4.71134 23.6279 4.86129C22.8434 5.01125 21.6108 4.93627 21.2372 5.51734C21.1625 5.64855 21.1252 5.76101 21.1252 5.89222V5.94846H21.424H25.0286H25.1033C25.9251 5.91097 26.5788 5.27367 26.6909 4.48641L26.7095 4.33646L26.4481 4.39269ZM7.32305 6.06092C7.32305 6.49203 7.13629 6.88566 6.81878 7.14808L6.63201 7.31678C6.22113 7.74789 5.95965 8.31022 5.95965 8.96626C5.95965 9.52859 6.16509 10.0534 6.4826 10.4471L6.8001 10.7657L6.81878 10.8032L8.92926 8.36645L8.8919 8.17901C8.8919 8.06654 8.92926 7.97282 8.98529 7.8791C9.28411 7.4105 9.47088 6.84817 9.47088 6.24836C9.47088 4.95501 8.6491 3.83037 7.49114 3.418L7.30438 3.36176L0.356619 1.05623L0.225883 1.01875L0.18853 1.13121C0.076469 1.35614 0.0204387 1.61856 0.00176194 1.89972C-0.0355916 2.79944 0.52471 3.58669 1.32781 3.86785L1.42119 3.8866C1.57061 3.92409 1.70135 3.96158 1.86944 3.96158C3.08343 4.16776 5.90362 4.59888 6.20245 4.65511C6.85614 4.80506 7.32305 5.38613 7.32305 6.06092ZM27.8301 1.1687L27.7741 1L20.7143 3.36176L20.5275 3.418C19.3696 3.83037 18.5478 4.93627 18.5478 6.24836C18.5478 6.84817 18.7159 7.4105 19.0334 7.8791C19.0894 7.95408 19.1268 8.06654 19.1268 8.17901C19.1268 8.27273 19.0894 8.36645 19.0521 8.44143V8.46017L20.9197 10.6157C20.9944 10.7095 21.0692 10.8032 21.1252 10.8782L21.2186 10.7657L21.5361 10.4471C21.8723 10.0347 22.059 9.52859 22.059 8.96626C22.059 8.32896 21.7975 7.74789 21.3867 7.31678L21.1999 7.14808C20.9011 6.88566 20.6956 6.49203 20.6956 6.06092C20.6956 5.38613 21.1625 4.82381 21.7976 4.65511C22.0964 4.61762 24.9352 4.16776 26.1306 3.96158C26.28 3.96158 26.6722 3.84911 26.6722 3.84911C27.4753 3.56795 28.0356 2.7807 27.9982 1.88098C27.9982 1.6373 27.9422 1.39363 27.8301 1.1687ZM13.0008 24.7113V25.9859L13.0942 30.3721C13.5611 30.8032 14.1588 31.2156 14.8498 31.6842L14.8871 30.0159H14.9058L14.9992 26.0797C14.4202 25.5736 13.6918 25.1237 13.0008 24.7113ZM11.7308 24.0178C10.5728 25.0113 9.75103 26.0422 9.52691 27.2043C9.04132 29.716 10.5541 31.2156 12.3284 32.4152C13.4864 33.2024 14.7751 33.8397 15.6716 34.5708C15.7836 34.6645 15.8957 34.7582 16.0078 34.8707H15.9891C16.8482 35.6579 17.2591 36.5389 17.2031 37.2137C17.147 38.2259 16.6428 38.8632 16.2505 39.2381C16.1198 39.313 15.9891 39.3693 15.8957 39.4255C15.8023 39.4817 15.765 39.5192 15.765 39.5192C15.765 39.5192 15.9144 39.463 16.1385 39.3505C15.9891 39.463 15.8957 39.5005 15.8957 39.5005L15.9891 39.463C15.8583 39.5567 15.7836 39.5942 15.7836 39.5942C15.7836 39.5942 16.6428 39.2755 17.4085 38.6195C17.9875 38.1509 18.5104 37.4761 18.5665 36.5951C18.6412 35.4517 17.782 34.1584 16.2879 33.015C16.1572 32.9213 16.0078 32.8276 15.877 32.7151C15.8397 32.6963 15.6529 32.5464 15.4474 32.4152L15.3541 32.359C15.2047 32.2465 15.0739 32.1715 15.0552 32.1528C14.084 31.5155 13.2809 30.9344 12.702 30.3533C12.0296 29.6973 11.6374 29.06 11.6374 28.3852C11.6187 27.5605 12.0856 26.7919 12.7767 26.1172L12.7953 24.5801C12.5712 24.4489 12.1043 24.1865 11.8989 24.0928L11.7308 24.0178ZM4.11065 7.65417H5.79156L5.84759 7.5792C6.10907 7.18557 6.53863 6.79194 6.74407 6.37957H2.20562L2.2243 6.45455C2.42974 7.11059 3.0274 7.59794 3.73712 7.63543L4.11065 7.65417Z" fill="white"/>
</svg>
