<svg width="148" height="149" viewBox="0 0 148 149" fill="none" xmlns="http://www.w3.org/2000/svg">
<path d="M22.5218 109.336L12.486 115.087L11.2198 112.875L19.6549 108.041L17.6374 104.522L9.20224 109.357L7.936 107.145L17.9718 101.394L22.5218 109.336Z" fill="#19181E"/>
<path d="M20.8903 120.953L18.3674 117.89L15.4852 119.173L13.8232 117.154L24.3527 112.8C24.5303 112.708 24.7358 112.685 24.9291 112.737C25.1274 112.787 25.304 112.9 25.4326 113.059L26.9697 114.923C27.1157 115.068 27.2016 115.263 27.2105 115.469C27.2194 115.675 27.1506 115.876 27.0178 116.034L20.7308 125.537L19.0783 123.533L20.8903 120.953ZM22.0643 119.268L24.1779 116.268C24.5237 115.808 24.7543 115.517 24.8696 115.394L24.5814 115.044C24.4815 115.098 24.3181 115.183 24.0933 115.296C23.8685 115.409 23.6975 115.488 23.5822 115.544L20.2331 117.043L22.0643 119.268Z" fill="#19181E"/>
<path d="M36.8494 124.371L29.2674 133.104L27.3306 131.423L33.704 124.081L32.5915 123.12C32.0919 122.688 31.6135 122.703 31.1562 123.162C29.9111 124.376 28.9433 125.281 28.2529 125.879C27.6536 126.415 26.9939 126.878 26.2872 127.261C24.5272 128.249 23.0118 128.042 21.7411 126.642L22.8939 125.028C23.2102 125.232 23.5657 125.366 23.9373 125.424C24.2907 125.452 24.6442 125.371 24.9499 125.191C25.5958 124.829 26.2007 124.398 26.7541 123.906C27.3946 123.35 28.3105 122.491 29.5018 121.329C30.6931 120.144 31.926 120.105 33.2006 121.212L36.8494 124.371Z" fill="#19181E"/>
<path d="M39.0965 135.877L35.7051 133.808L33.409 135.961L31.1763 134.607L39.6979 127.036C39.8357 126.891 40.0227 126.802 40.2225 126.787C40.4248 126.769 40.6271 126.819 40.7989 126.927L42.8606 128.183C43.046 128.274 43.1908 128.43 43.2666 128.622C43.3424 128.813 43.3435 129.027 43.2699 129.219L40.4415 140.258L38.2242 138.913L39.0965 135.877ZM39.6537 133.902L40.6586 130.38C40.8354 129.832 40.9584 129.482 41.0256 129.327L40.6413 129.09C40.5645 129.175 40.4377 129.307 40.2571 129.488C40.0764 129.669 39.9458 129.803 39.8536 129.89L37.2 132.399L39.6537 133.902Z" fill="#19181E"/>
<path d="M53.2649 135.396L50.0887 134.03L46.3592 142.754L44.0016 141.747L47.7311 133.021L44.5549 131.665L45.3716 129.743L54.0815 133.467L53.2649 135.396Z" fill="#19181E"/>
<path d="M57.8695 143.275L54.0266 142.256L52.4414 144.983L49.9147 144.314L55.9327 134.636C56.0239 134.458 56.1781 134.321 56.365 134.252C56.5554 134.176 56.7654 134.165 56.9626 134.221L59.2971 134.826C59.5004 134.859 59.6839 134.967 59.8113 135.129C59.9387 135.291 60.0007 135.495 59.985 135.7L60.4135 147.096L57.9021 146.43L57.8695 143.275ZM57.8426 141.221L57.8099 137.553C57.824 136.977 57.8413 136.607 57.8618 136.44L57.4237 136.323C57.3738 136.427 57.2911 136.588 57.1739 136.811C57.0567 137.034 56.9664 137.195 56.903 137.312L55.0565 140.481L57.8426 141.221Z" fill="#19181E"/>
<path d="M66.685 147.865L67.1846 138.726C67.1904 138.4 67.2628 138.078 67.3973 137.781C67.5317 137.484 67.7255 137.217 67.9666 136.997C68.2072 136.782 68.4891 136.619 68.7951 136.517C69.1011 136.415 69.4246 136.377 69.7459 136.405C72.1554 136.533 73.8591 136.688 74.857 136.87L74.6379 138.738L70.6701 138.521C70.4217 138.483 70.1686 138.545 69.965 138.692C69.7935 138.884 69.7045 139.136 69.7171 139.393L69.2463 148.013L66.685 147.865Z" fill="#19181E"/>
<path d="M79.7192 144.514L74.7234 144.735L74.6523 143.109L79.6481 142.888L79.7192 144.514Z" fill="#19181E"/>
<path d="M87.0584 140.838L87.07 140.905C87.2852 140.905 87.485 140.905 87.6676 140.905C87.8501 140.912 88.0307 140.946 88.2036 141.005L88.6667 141.161C88.8302 141.225 88.9782 141.323 89.101 141.449C89.2585 141.597 89.3873 141.712 89.4852 141.797C89.6365 141.944 89.7688 142.109 89.8791 142.289L90.2634 142.865C90.3576 143.001 90.4998 143.249 90.6938 143.597C90.8879 143.945 91.0339 144.22 91.1358 144.412C91.2376 144.604 91.4105 144.927 91.6507 145.384C91.8211 145.704 91.9492 145.948 92.035 146.116L89.4122 146.585C88.4361 144.68 87.7956 143.522 87.4908 143.111C87.0258 142.481 86.523 142.145 85.9824 142.104C85.7512 142.086 85.5186 142.099 85.2907 142.143L84.4837 142.287C84.6288 142.63 84.7382 142.987 84.8103 143.353L85.5194 147.288L83.0099 147.736L80.9771 136.336L83.4845 135.888L84.061 139.107C84.1399 139.561 84.1766 140.021 84.1705 140.482L84.9391 140.344C85.7192 140.203 86.2316 139.805 86.4762 139.151C86.7209 138.496 86.938 137.249 87.1276 135.408C87.1276 135.327 87.143 135.269 87.1488 135.233L89.7062 134.778C89.4346 136.827 89.2495 138.044 89.1509 138.428C88.9178 139.356 88.5335 140.009 87.998 140.388C87.7066 140.58 87.3906 140.731 87.0584 140.838V140.838Z" fill="#19181E"/>
<path d="M103.077 138.918L99.4129 140.456L99.8088 143.58L97.3973 144.587L96.2714 133.25C96.2331 133.051 96.2715 132.845 96.379 132.674C96.485 132.5 96.6449 132.365 96.8343 132.289L99.0594 131.357C99.2414 131.26 99.4532 131.235 99.653 131.286C99.8528 131.337 100.026 131.462 100.139 131.634L107.418 140.4L105.027 141.395L103.077 138.918ZM101.805 137.306L99.5436 134.424C99.2054 133.961 98.9921 133.655 98.9076 133.509L98.4887 133.684C98.5118 133.796 98.5444 133.976 98.5867 134.224C98.629 134.472 98.6617 134.66 98.677 134.785L99.1439 138.425L101.805 137.306Z" fill="#19181E"/>
<path d="M111.122 124.5L117.324 134.263L115.159 135.639L112.39 131.281L108.953 133.463L111.719 137.821L109.569 139.187L103.367 129.419L105.519 128.053L107.892 131.788L111.329 129.611L108.956 125.874L111.122 124.5Z" fill="#19181E"/>
<path d="M122.795 125.601L119.848 128.266L121.26 131.081L119.319 132.833L114.491 122.502C114.389 122.328 114.357 122.122 114.4 121.925C114.441 121.724 114.547 121.542 114.7 121.406L116.491 119.789C116.63 119.637 116.821 119.542 117.026 119.524C117.231 119.506 117.436 119.565 117.6 119.691L127.38 125.539L125.458 127.282L122.795 125.601ZM121.066 124.506L117.974 122.532C117.499 122.208 117.197 121.991 117.069 121.881L116.733 122.185C116.793 122.283 116.883 122.442 117.006 122.661C117.129 122.88 117.221 123.045 117.279 123.161L118.927 126.437L121.066 124.506Z" fill="#19181E"/>
<path d="M125.603 109.341L134.688 116.503L133.11 118.503L125.474 112.483L122.963 115.669L130.599 121.689L129.021 123.689L119.937 116.53L125.603 109.341Z" fill="#19181E"/>
<path d="M136.983 106.53L135.083 110.012L137.346 112.198L136.095 114.504L128.123 106.361C127.97 106.231 127.872 106.049 127.849 105.85C127.819 105.646 127.858 105.439 127.958 105.26L129.111 103.146C129.192 102.957 129.341 102.804 129.529 102.719C129.717 102.634 129.93 102.623 130.126 102.687L141.289 104.97L140.046 107.251L136.983 106.53ZM134.981 106.069L131.411 105.231C130.856 105.081 130.498 104.977 130.341 104.916L130.126 105.314L130.541 105.673C130.733 105.84 130.869 105.967 130.961 106.057L133.601 108.603L134.981 106.069Z" fill="#19181E"/>
<path d="M2.41413 77.5682L2.78113 80.998L12.2251 79.995L12.4979 82.5448L3.06358 83.5516L3.42866 86.9853L1.35349 87.2062L0.346649 77.7911L2.41413 77.5682Z" fill="#19181E"/>
<path d="M1.39069 74.3615C0.577271 73.5955 0.222442 72.2851 0.326201 70.4302C0.429959 68.5754 0.928897 67.3104 1.82301 66.6353C2.71969 65.959 4.31065 65.6842 6.5959 65.811C8.88115 65.9379 10.4311 66.3862 11.2458 67.1561C12.058 67.9246 12.4128 69.237 12.3103 71.0931C12.2078 72.9492 11.7089 74.2142 10.8135 74.888C9.91681 75.5605 8.32649 75.8327 6.04252 75.7046C3.75856 75.5765 2.20794 75.1288 1.39069 74.3615ZM3.31214 68.8104C2.74723 69.0987 2.44044 69.6751 2.39176 70.5397C2.34309 71.4044 2.58327 72.0135 3.11231 72.367C3.64263 72.7167 4.67189 72.9339 6.20008 73.0184C7.72828 73.103 8.77483 73.0043 9.33974 72.7225C9.90464 72.4356 10.2114 71.8591 10.2601 70.9932C10.3081 70.1247 10.068 69.5137 9.53765 69.1659C9.00733 68.8181 7.98127 68.601 6.45179 68.5145C4.92232 68.4281 3.86936 68.5222 3.30445 68.8104H3.31214Z" fill="#19181E"/>
<path d="M12.6609 64.6506L1.38193 62.0835C1.51002 61.0485 1.78735 59.6042 2.21392 57.7506C2.57131 56.1827 3.07217 55.165 3.71649 54.6974C4.36082 54.2299 5.39712 54.1581 6.8254 54.4822C8.25369 54.8063 9.16317 55.3027 9.55387 55.9713C9.94456 56.64 9.97979 57.6808 9.65955 59.0937C9.49898 59.8104 9.29362 60.5163 9.04468 61.2073L13.2296 62.1584L12.6609 64.6506ZM7.2635 60.7923L7.65739 59.063C7.79574 58.4058 7.77076 57.937 7.58246 57.6526C7.39415 57.3682 6.95222 57.1492 6.25473 56.9897C5.55725 56.8302 5.06343 56.8398 4.77137 57.0128C4.47931 57.1857 4.26026 57.6027 4.11039 58.256L3.7261 59.9853L7.2635 60.7923Z" fill="#19181E"/>
<path d="M15.0408 55.0583L6.51911 51.7227C6.20967 51.6151 5.92547 51.4454 5.68394 51.224C5.44241 51.0026 5.24865 50.7342 5.11453 50.4353C4.98657 50.1393 4.92056 49.8202 4.92056 49.4976C4.92056 49.1751 4.98657 48.856 5.11453 48.56C5.99456 46.3144 6.67539 44.7453 7.15704 43.8524L8.86136 44.646L7.41835 48.3448C7.30504 48.5694 7.28434 48.8295 7.36071 49.0692C7.48973 49.2911 7.69982 49.4543 7.94675 49.5245L15.9861 52.6719L15.0408 55.0583Z" fill="#19181E"/>
<path d="M9.42401 41.3605C9.05125 40.3049 9.33242 38.9772 10.2675 37.3773C11.2026 35.7774 12.2229 34.8807 13.3284 34.6872C14.4339 34.4913 15.9755 34.9716 17.9533 36.1283C19.9312 37.2851 21.1058 38.3925 21.4773 39.4505C21.8475 40.5086 21.565 41.8389 20.6299 43.4414C19.6948 45.0439 18.6758 45.9406 17.5729 46.1314C16.47 46.3223 14.9328 45.8394 12.9614 44.6826C10.99 43.5259 9.81086 42.4185 9.42401 41.3605ZM13.6512 37.2908C13.0197 37.2908 12.4836 37.6668 12.043 38.4187C11.6023 39.1706 11.5383 39.822 11.8508 40.3728C12.1621 40.9249 12.9787 41.5872 14.3007 42.3596C15.6226 43.132 16.6 43.5163 17.2328 43.5125C17.8733 43.5125 18.41 43.1372 18.843 42.3865C19.2759 41.6359 19.34 40.9838 19.0351 40.4305C18.7238 39.8784 17.9072 39.2161 16.5853 38.4437C15.2633 37.6713 14.2872 37.287 13.657 37.2908H13.6512Z" fill="#19181E"/>
<path d="M23.3885 29.0476L23.4404 29.0899C24.0527 28.4827 24.6708 28.2034 25.2946 28.2521C25.9184 28.3008 26.598 28.6351 27.3332 29.2551C28.221 30.0019 28.6373 30.7391 28.5822 31.4667C28.5271 32.1943 28.0416 33.1006 27.1257 34.1856C25.7525 35.8188 24.6676 37.0357 23.8708 37.8363L15.0321 30.3888C15.6098 29.56 16.511 28.4199 17.7356 26.9686C18.7219 25.7965 19.5661 25.1189 20.2681 24.9357C20.97 24.7525 21.77 25.0388 22.668 25.7946C23.3084 26.3351 23.6927 26.8629 23.8208 27.3779C23.9489 27.8928 23.8048 28.4494 23.3885 29.0476ZM20.2469 31.5301L21.4555 30.0929C21.8513 29.6221 22.0473 29.2359 22.032 28.94C22.0166 28.6441 21.7956 28.2925 21.3441 27.9101C20.8925 27.5277 20.5275 27.3798 20.2258 27.4413C19.9241 27.5027 19.5533 27.7986 19.1075 28.329L17.9835 29.6298L20.2469 31.5301ZM24.1071 34.7774L25.3599 33.2902C25.8198 32.7445 26.0497 32.3102 26.0497 31.9874C26.0497 31.6646 25.8063 31.2995 25.3196 30.8922C24.7892 30.4451 24.3499 30.2427 24.0014 30.285C23.6517 30.3273 23.2329 30.6213 22.7621 31.1708L21.542 32.6196L24.1071 34.7774Z" fill="#19181E"/>
<path d="M24.3281 21.6254C24.3281 20.5071 25.0365 19.3491 26.4533 18.1514C27.87 16.9537 29.1318 16.4477 30.2385 16.6335C31.3453 16.8179 32.6378 17.7857 34.116 19.5368C35.5942 21.2879 36.3314 22.7238 36.3276 23.8447C36.3276 24.9668 35.6167 26.1261 34.1948 27.3225C32.7729 28.5189 31.5131 29.023 30.4153 28.8347C29.3034 28.64 28.0109 27.6709 26.5378 25.9275C25.0647 24.1841 24.3281 22.7501 24.3281 21.6254ZM29.6698 19.2044C29.0716 18.9917 28.44 19.166 27.7752 19.727C27.1104 20.2881 26.8324 20.8812 26.9413 21.5063C27.0502 22.1314 27.5984 23.0281 28.5861 24.1963C29.5737 25.3646 30.366 26.0563 30.9629 26.2715C31.5598 26.4841 32.1914 26.3093 32.8575 25.7469C33.5236 25.1846 33.8015 24.5915 33.6914 23.9677C33.5825 23.3451 33.0336 22.4484 32.0447 21.2776C31.0558 20.1068 30.2641 19.4157 29.6698 19.2044Z" fill="#19181E"/>
<path d="M41.4262 17.7225L37.199 20.3761L36.3343 18.9984L40.5615 16.3448L41.4262 17.7225Z" fill="#19181E"/>
<path d="M48.4504 5.39673L53.1349 15.9647L50.8061 17.0138L46.869 8.11366L43.1568 9.75651L47.0957 18.6471L44.765 19.6789L40.0824 9.10321L48.4504 5.39673Z" fill="#19181E"/>
<path d="M54.9771 15.3878L52.1468 4.1742C53.1306 3.82194 54.5435 3.41331 56.3855 2.94832C57.9458 2.55634 59.0801 2.54097 59.7884 2.9022C60.4968 3.26343 61.0297 4.15499 61.3871 5.57686C61.747 6.99618 61.7176 8.03248 61.2987 8.68577C60.8798 9.33907 59.9671 9.84313 58.5606 10.198C57.8536 10.3768 57.1362 10.5115 56.4124 10.6015L57.4615 14.7614L54.9771 15.3878ZM55.9667 8.82796L57.696 8.39371C58.3441 8.21822 58.7515 7.98316 58.918 7.68854C59.0845 7.39392 59.082 6.89946 58.9103 6.20518C58.7361 5.51217 58.5049 5.07472 58.2167 4.89283C57.9285 4.71221 57.4596 4.70068 56.8102 4.86785L55.0905 5.31747L55.9667 8.82796Z" fill="#19181E"/>
<path d="M64.4115 2.56639C65.0609 1.65691 66.3105 1.12915 68.1602 0.983117C70.0099 0.837087 71.3306 1.16117 72.1223 1.95537C72.9139 2.75085 73.4 4.28802 73.5806 6.56686C73.7613 8.8457 73.5236 10.445 72.8678 11.3647C72.2106 12.2729 70.9579 12.8007 69.1094 12.948C67.261 13.0953 65.9435 12.7712 65.157 11.9758C64.3718 11.1803 63.8882 9.64311 63.7063 7.36426C63.5244 5.08542 63.7594 3.48613 64.4115 2.56639ZM70.1758 3.71927C69.8146 3.19791 69.1997 2.97182 68.3312 3.04099C67.4627 3.11017 66.8914 3.43041 66.6173 4.00172C66.3419 4.57431 66.265 5.62343 66.3867 7.14906C66.5084 8.67469 66.7492 9.69947 67.1092 10.2234C67.4704 10.7447 68.0853 10.9702 68.9538 10.8997C69.8223 10.8293 70.3942 10.509 70.6696 9.93901C70.9425 9.36898 71.0187 8.32051 70.8983 6.79359C70.7779 5.26668 70.5345 4.24126 70.1681 3.71735L70.1758 3.71927Z" fill="#19181E"/>
<path d="M86.1537 1.90148L88.5978 2.21852C89.1973 2.29538 89.4721 2.65085 89.426 3.28685L88.5325 13.8683L86.1384 13.5551L86.9646 4.01508L86.6649 3.97665L84.044 10.8651C83.8653 11.3935 83.4925 11.6336 82.9276 11.5529L81.2636 11.3435C81.0158 11.3339 80.7808 11.231 80.6058 11.0552C80.4308 10.8795 80.3288 10.6441 80.3202 10.3962L79.4709 3.06972L79.1885 3.03514L77.6609 12.4887L75.2783 12.1909L77.0192 1.7151C77.1165 1.08486 77.472 0.808813 78.0856 0.886952L80.5316 1.19438C81.0645 1.26228 81.3629 1.57547 81.427 2.13398L82.1033 8.03092C82.1187 8.25957 82.1379 8.57661 82.161 8.99164C82.184 9.40668 82.1956 9.63149 82.1994 9.68913L82.4146 9.71603C82.4338 9.66223 82.503 9.43934 82.626 9.04929C82.7489 8.65923 82.845 8.35564 82.918 8.14044L85.0201 2.58744C85.2084 2.05968 85.5863 1.83103 86.1537 1.90148Z" fill="#19181E"/>
<path d="M94.9824 8.36723L96.5503 8.95712C98.0362 9.51562 98.9694 10.1561 99.3498 10.8786C99.7303 11.601 99.6707 12.6258 99.1712 13.9529C98.6767 15.262 98.0714 16.0614 97.3554 16.3509C96.6393 16.6404 95.6363 16.5411 94.3464 16.053C92.4749 15.3472 91.0581 14.7657 90.0961 14.3084L90.0327 14.2834L94.11 3.45984L96.4946 4.35716L94.9824 8.36723ZM93.0609 13.4495L94.6288 14.0394C95.2668 14.2795 95.7202 14.3295 95.9892 14.1854C96.2582 14.0413 96.5215 13.6301 96.777 12.9499C97.0326 12.2697 97.1094 11.774 97.0076 11.4608C96.9058 11.1476 96.5464 10.8651 95.9181 10.6345L94.3502 10.0427L93.0609 13.4495ZM105.915 7.90224L101.846 18.7239L99.4536 17.8265L103.531 7.00108L105.915 7.90224Z" fill="#19181E"/>
<path d="M121.461 17.8229L114.907 27.3533L103.491 19.4965L110.043 9.96606L112.101 11.3822L106.587 19.3927L109.212 21.197L114.72 13.1864L116.778 14.6025L111.269 22.6131L113.894 24.4173L119.403 16.4068L121.461 17.8229Z" fill="#19181E"/>
<path d="M130.704 27.3262L122.293 35.2675L120.531 33.4037L127.602 26.7286L126.588 25.6603C126.136 25.1799 125.658 25.146 125.156 25.5584C123.798 26.6383 122.746 27.4408 121.999 27.966C121.35 28.4397 120.648 28.8357 119.907 29.1458C118.058 29.9554 116.571 29.6005 115.443 28.0813L116.756 26.5883C117.05 26.8226 117.391 26.9922 117.755 27.086C118.103 27.1505 118.463 27.1048 118.785 26.9553C119.463 26.6579 120.107 26.2888 120.706 25.8543C121.406 25.365 122.402 24.6009 123.696 23.562C124.999 22.5014 126.23 22.5847 127.389 23.8118L130.704 27.3262Z" fill="#19181E"/>
<path d="M129.419 42.0752L127.921 43.2127C127.247 42.4134 126.198 40.964 124.775 38.8645C124.343 38.224 124.172 37.5976 124.26 36.9853C124.311 36.6726 124.428 36.3746 124.605 36.1119C124.782 35.8492 125.014 35.6279 125.284 35.4635L131.085 31.5341C131.339 31.3425 131.632 31.2089 131.943 31.1425C132.254 31.0761 132.576 31.0786 132.886 31.1498C133.531 31.3272 134.085 31.7444 134.434 32.3161C135.859 34.4169 136.816 35.9291 137.305 36.8527L135.679 37.8307L133.181 34.1396C133.129 34.0439 133.056 33.9603 132.969 33.8942C132.882 33.828 132.782 33.7807 132.676 33.7553C132.442 33.7459 132.212 33.8224 132.031 33.9705L130.574 34.9562L133.158 38.7741L131.633 39.8079L129.047 35.9938L127.202 37.2427C126.989 37.3543 126.825 37.5404 126.741 37.7654C126.725 37.8738 126.731 37.9845 126.761 38.0901C126.79 38.1957 126.842 38.2939 126.912 38.3783L129.419 42.0752Z" fill="#19181E"/>
<path d="M142.918 48.0376L132.41 52.8701L131.339 50.5394L136.03 48.3835L134.327 44.6828L129.637 46.8387L128.573 44.5329L139.079 39.687L140.145 41.9928L136.124 43.8412L137.826 47.565L141.846 45.7165L142.918 48.0376Z" fill="#19181E"/>
<path d="M146.541 60.7149L135.337 63.5971L134.699 61.1126L139.695 59.8291L138.682 55.8844L133.686 57.166L133.054 54.6988L144.258 51.8167L144.89 54.2896L140.604 55.3886L141.616 59.3353L145.903 58.2343L146.541 60.7149Z" fill="#19181E"/>
<path d="M139.126 71.4872L138.818 67.5251L135.729 66.9257L135.537 64.3182L146.658 66.7988C146.857 66.8255 147.038 66.9256 147.167 67.0794C147.301 67.2341 147.381 67.4285 147.394 67.6327L147.586 70.0403C147.622 70.2433 147.58 70.4523 147.469 70.626C147.358 70.7996 147.186 70.9253 146.987 70.978L136.38 75.1475L136.188 72.5574L139.126 71.4872ZM141.047 70.782L144.506 69.5388C145.054 69.362 145.409 69.2545 145.574 69.2199L145.54 68.7683C145.426 68.7549 145.246 68.7299 144.996 68.6934C144.746 68.6569 144.56 68.6261 144.433 68.6031L140.832 67.9075L141.047 70.782Z" fill="#19181E"/>
<path d="M135.544 84.1629L135.771 81.6246L140.19 82.0089L140.336 80.3219C140.394 79.6814 140.1 79.2574 139.454 79.0499L136.088 77.897L136.32 75.2339L139.764 76.4751C140.701 76.78 141.219 77.4083 141.316 78.3601H141.418C141.587 77.5787 141.928 77.0388 142.44 76.7403C142.953 76.4418 143.657 76.3317 144.554 76.4098C145.802 76.5174 146.653 76.9139 147.109 77.5992C147.565 78.2845 147.729 79.3676 147.601 80.8484C147.439 82.7186 147.263 84.1616 147.073 85.1774L135.544 84.1629ZM142.144 82.178L145.469 82.4662L145.636 80.7369C145.691 80.1029 145.616 79.6609 145.415 79.413C145.213 79.1652 144.792 79.0095 144.158 78.9442C143.524 78.8789 143.069 78.9692 142.792 79.1863C142.515 79.4034 142.35 79.8242 142.296 80.4468L142.144 82.178Z" fill="#19181E"/>
<path d="M55.8539 43.9143L41.6351 34.307V41.8814C41.635 43.6674 42.0728 45.4261 42.9103 47.0036C43.7478 48.581 44.9593 49.9291 46.4388 50.9295L60.6575 60.5368V52.9586C60.657 51.1732 60.2189 49.4152 59.3815 47.8385C58.544 46.2618 57.3328 44.9144 55.8539 43.9143V43.9143Z" fill="#0F4C81"/>
<path d="M92.2766 43.9143C90.797 44.9146 89.5853 46.2626 88.7479 47.8401C87.9104 49.4176 87.4726 51.1764 87.4729 52.9624V60.5368L101.692 50.9295C103.171 49.9289 104.382 48.5809 105.22 47.0035C106.057 45.426 106.495 43.6673 106.495 41.8814V34.307L92.2766 43.9143Z" fill="#C0D725"/>
<path d="M87.2727 86.4222L56.8331 65.8627V72.753C56.8333 74.4043 57.2386 76.0304 58.0135 77.4886C58.7883 78.9468 59.909 80.1927 61.2774 81.1171L91.7055 101.677V94.7671C91.7059 93.1196 91.302 91.4972 90.5291 90.0422C89.7562 88.5873 88.6381 87.3442 87.2727 86.4222V86.4222Z" fill="#0F4C81"/>
<path d="M82.609 95.5222L76.5526 99.6149V111.868L91.6744 101.648L82.609 95.5222Z" fill="#C0D725"/>
<path d="M74.2683 77.6355L76.551 79.1553V67.8879L74.0646 69.5654L71.6148 67.911V75.8428L74.2683 77.6355Z" fill="#A5B8D0"/>
<path d="M76.5354 76.1063V79.1556L75.4363 78.4255L83.3354 83.7614L87.2014 81.1501C88.5885 80.213 89.7244 78.9499 90.5097 77.4715C91.2949 75.9932 91.7054 74.3447 91.7053 72.6707V65.8553L76.5354 76.1063Z" fill="#C0D725"/>
<path d="M71.6148 88.0956V115.968C71.6148 116.623 71.8747 117.25 72.3374 117.713C72.8001 118.175 73.4276 118.435 74.0819 118.435C74.7363 118.435 75.3638 118.175 75.8265 117.713C76.2891 117.25 76.5491 116.623 76.5491 115.968V91.4293L71.6148 88.0956Z" fill="#A5B8D0"/>
<path d="M71.596 88.0958L74.2572 89.8943L74.2668 89.8885L65.1995 83.761L56.8604 89.3966L65.9277 95.5222L71.596 91.6927V88.0958Z" fill="#C0D725"/>
<path d="M71.6167 99.3653L56.8331 89.3738V96.4294C56.8333 98.0297 57.2259 99.6055 57.9766 101.019C58.7273 102.432 59.8132 103.64 61.1391 104.536L71.6167 111.615V99.3653Z" fill="#0F4C81"/>
<path d="M76.5526 99.615L80.4128 109.259L76.5526 111.868" fill="#B4C614"/>
<path d="M76.551 91.4293L71.6148 90.5531V88.0956L76.551 91.4293Z" fill="#96A8BC"/>
<path d="M71.6148 67.911V70.1687L74.0646 72.1228L76.551 70.3051V67.8879L74.0646 69.5654L71.6148 67.911Z" fill="#96A8BC"/>
<path d="M65.2021 83.761L69.4332 93.155L71.616 91.6812V88.0958L65.2021 83.761Z" fill="#B4C614"/>
<path d="M74.0688 47.1439C70.5221 47.1439 67.1207 48.5526 64.6124 51.0601C62.1042 53.5676 60.6946 56.9686 60.6936 60.5153L74.0688 69.5461L87.444 60.5153C87.443 56.9686 86.0334 53.5676 83.5252 51.0601C81.0169 48.5526 77.6155 47.1439 74.0688 47.1439V47.1439Z" fill="#0F4C81"/>
</svg>
