<svg width="234" height="40" viewBox="0 0 234 40" fill="none" xmlns="http://www.w3.org/2000/svg">
<path d="M2.99004 4.9672H6.89349C6.89349 4.85473 6.85614 4.64855 6.78143 4.53609C6.42657 3.93627 5.1939 4.02999 4.3908 3.88004C3.43829 3.71134 1.51458 3.39269 1.51458 3.39269L1.34649 3.3552V3.44892C1.4212 4.27367 2.09356 4.92971 2.93401 4.9672H2.99004ZM5.84759 8.94096L5.75421 8.71603C5.58612 8.22868 5.56744 7.47892 5.6795 7.01031L3.38226 6.99157L3.40093 7.06654C3.5877 7.96626 4.29742 8.67854 5.21258 8.86598C5.30596 8.86598 5.69818 8.94096 5.84759 8.94096ZM24.4497 6.97282L22.3392 6.99157C22.4512 7.5164 22.4326 8.35989 22.2084 8.82849L22.1711 8.92221L22.5446 8.88473C23.5905 8.79101 24.4123 8.04124 24.6177 7.0478L24.6364 6.97282H24.4497ZM25.6263 5.37957H21.2559C21.4614 5.79194 21.8909 6.18557 22.1524 6.5792L22.1898 6.65417H24.2069C24.3189 6.65417 24.4496 6.61668 24.487 6.61668C25.1033 6.50422 25.6076 6.05436 25.7944 5.45455V5.37957H25.6263ZM22.5633 10.8716C22.0403 10.8716 21.5548 10.6279 21.0878 10.253L20.7143 9.80319L18.8466 7.64761C18.7159 7.53515 18.6038 7.42268 18.4731 7.31022C17.3338 6.05436 15.9517 4.94846 13.9346 4.94846C12.3658 4.94846 11.1891 5.62324 10.1993 6.52296C9.86309 6.80412 9.56427 7.12278 9.28411 7.42268L9.1347 7.55389L6.91217 10.1218L6.83746 10.2156C6.37054 10.6092 5.88494 10.8716 5.34332 10.8716H5.32464L5.34332 10.8903H5.32464C5.32464 11.1528 5.51141 11.359 5.75421 11.4152H22.1524C22.3765 11.3402 22.5633 11.1153 22.5633 10.8716ZM14.7938 33.2709C14.4389 33.0272 14.028 32.7835 13.6358 32.5398C13.1315 32.2399 12.6086 31.9213 12.1043 31.5839C10.4421 32.7835 9.47088 34.1706 9.54559 35.3889C9.67633 37.3946 12.2164 38.2943 12.2164 38.2943C12.2164 38.2943 12.123 38.2381 11.9922 38.1443C12.1977 38.2381 12.3284 38.2943 12.3284 38.2943C12.3284 38.2943 11.0024 37.6008 10.909 35.9325C10.8716 35.2015 11.3759 34.1893 12.4218 33.3458C12.6459 33.1584 12.9074 32.9709 13.1876 32.8023L13.337 39.3252C13.337 39.7001 13.6358 40 14.0093 40C14.3829 40 14.663 39.7001 14.663 39.3252V39.2315L14.7938 33.2709ZM12.9448 23.374C12.814 23.3177 12.7206 23.2427 12.6086 23.1865C12.7206 23.2615 12.8327 23.3177 12.9448 23.374ZM12.0296 22.8679L12.2164 22.9616L12.1603 22.9428C12.4218 23.0928 12.814 23.299 12.9634 23.3927L13.0195 23.4302C13.7665 23.8613 14.4576 24.2924 14.9992 24.761C15.877 25.5108 16.4373 26.3355 16.3439 27.2915C16.3066 27.7601 15.933 28.4911 15.1299 29.2409L15.0926 30.8716L15.1486 30.9091C15.1673 30.9278 15.3541 31.059 15.5408 31.1903C17.2964 30.0094 18.8093 28.5286 18.3237 26.0169C18.2303 25.492 18.0062 25.0047 17.6887 24.5173C17.2778 23.9175 16.6988 23.3365 16.1011 22.8116C15.1673 22.0056 14.084 21.2933 12.8701 20.5436C12.5712 20.3561 12.2537 20.15 11.9362 19.9625C11.7681 19.8688 11.6187 19.7563 11.4506 19.6626C11.0958 19.4377 10.7409 19.2128 10.3674 18.9878C5.82891 16.12 10.8903 14.5642 10.4608 16.6261C11.0211 16.4948 12.5339 15.3327 11.2825 13.9082C10.5355 13.0459 8.31292 12.5586 6.7254 14.0019C6.44525 14.2643 6.22112 14.5267 6.05303 14.8079C4.85772 16.4761 5.45538 18.538 7.13629 20.0187C7.21099 20.075 7.2857 20.15 7.36041 20.2062C8.51837 21.1247 10.2927 21.9494 11.9736 22.8491L12.0296 22.8679ZM12.6833 11.6401L12.702 11.7151V11.7526L12.9074 20.2437C13.7105 20.731 14.4389 21.1996 15.0926 21.6682L15.1299 20.4124L15.3354 11.7338L15.3541 11.6589H12.6833V11.6401ZM21.4053 14.1518C21.2746 14.0394 21.1439 13.9456 21.0131 13.8519C19.463 12.6523 17.4085 13.1396 16.6988 13.9644C15.7276 15.089 16.4747 16.0637 17.091 16.4761C17.2964 16.6448 17.5206 16.7573 17.67 16.7948L17.6513 16.6823C17.5579 15.8013 18.5104 15.6701 19.1454 16.0637C19.7618 16.5698 19.8365 17.657 17.614 19.0628C16.8482 19.5501 16.0825 20.0187 15.3354 20.4874L15.2794 21.8932C15.6155 22.1368 15.9517 22.3993 16.2692 22.6804L16.2879 22.6992C17.9875 21.8182 19.7431 21.0122 20.8637 20.0375C22.7874 18.313 23.3104 15.8763 21.4053 14.1518ZM26.4481 3.39269C25.5142 3.54264 24.5617 3.71134 23.6279 3.86129C22.8434 4.01125 21.6108 3.93627 21.2372 4.51734C21.1625 4.64855 21.1252 4.76101 21.1252 4.89222V4.94846H21.424H25.0286H25.1033C25.9251 4.91097 26.5788 4.27367 26.6909 3.48641L26.7095 3.33646L26.4481 3.39269ZM7.32305 5.06092C7.32305 5.49203 7.13629 5.88566 6.81878 6.14808L6.63201 6.31678C6.22113 6.74789 5.95965 7.31022 5.95965 7.96626C5.95965 8.52859 6.16509 9.05342 6.4826 9.44705L6.8001 9.7657L6.81878 9.80319L8.92926 7.36645L8.8919 7.17901C8.8919 7.06654 8.92926 6.97282 8.98529 6.8791C9.28411 6.4105 9.47088 5.84817 9.47088 5.24836C9.47088 3.95501 8.6491 2.83037 7.49114 2.418L7.30438 2.36176L0.356619 0.056233L0.225883 0.0187453L0.18853 0.131211C0.076469 0.356141 0.0204387 0.618557 0.00176194 0.899719C-0.0355916 1.79944 0.52471 2.58669 1.32781 2.86785L1.42119 2.8866C1.57061 2.92409 1.70135 2.96158 1.86944 2.96158C3.08343 3.16776 5.90362 3.59888 6.20245 3.65511C6.85614 3.80506 7.32305 4.38613 7.32305 5.06092ZM27.8301 0.168699L27.7741 0L20.7143 2.36176L20.5275 2.418C19.3696 2.83037 18.5478 3.93627 18.5478 5.24836C18.5478 5.84817 18.7159 6.4105 19.0334 6.8791C19.0894 6.95408 19.1268 7.06654 19.1268 7.17901C19.1268 7.27273 19.0894 7.36645 19.0521 7.44143V7.46017L20.9197 9.61575C20.9944 9.70947 21.0692 9.80319 21.1252 9.87817L21.2186 9.7657L21.5361 9.44705C21.8723 9.03468 22.059 8.52859 22.059 7.96626C22.059 7.32896 21.7975 6.74789 21.3867 6.31678L21.1999 6.14808C20.9011 5.88566 20.6956 5.49203 20.6956 5.06092C20.6956 4.38613 21.1625 3.82381 21.7975 3.65511C22.0964 3.61762 24.9352 3.16776 26.1306 2.96158C26.28 2.96158 26.6722 2.84911 26.6722 2.84911C27.4753 2.56795 28.0356 1.7807 27.9982 0.880977C27.9982 0.637303 27.9422 0.393629 27.8301 0.168699ZM13.0008 23.7113V24.9859L13.0942 29.3721C13.5611 29.8032 14.1588 30.2156 14.8498 30.6842L14.8871 29.0159H14.9058L14.9992 25.0797C14.4202 24.5736 13.6918 24.1237 13.0008 23.7113ZM11.7308 23.0178C10.5728 24.0113 9.75103 25.0422 9.52691 26.2043C9.04132 28.716 10.5541 30.2156 12.3284 31.4152C13.4864 32.2024 14.7751 32.8397 15.6716 33.5708C15.7836 33.6645 15.8957 33.7582 16.0078 33.8707H15.9891C16.8482 34.6579 17.2591 35.5389 17.2031 36.2137C17.147 37.2259 16.6428 37.8632 16.2506 38.2381C16.1198 38.313 15.9891 38.3693 15.8957 38.4255C15.8023 38.4817 15.765 38.5192 15.765 38.5192C15.765 38.5192 15.9144 38.463 16.1385 38.3505C15.9891 38.463 15.8957 38.5005 15.8957 38.5005L15.9891 38.463C15.8583 38.5567 15.7836 38.5942 15.7836 38.5942C15.7836 38.5942 16.6428 38.2755 17.4085 37.6195C17.9875 37.1509 18.5104 36.4761 18.5665 35.5951C18.6412 34.4517 17.782 33.1584 16.2879 32.015C16.1572 31.9213 16.0078 31.8276 15.877 31.7151C15.8397 31.6963 15.6529 31.5464 15.4474 31.4152L15.3541 31.359C15.2047 31.2465 15.0739 31.1715 15.0552 31.1528C14.084 30.5155 13.2809 29.9344 12.702 29.3533C12.0296 28.6973 11.6374 28.06 11.6374 27.3852C11.6187 26.5605 12.0856 25.7919 12.7767 25.1172L12.7953 23.5801C12.5712 23.4489 12.1043 23.1865 11.8989 23.0928L11.7308 23.0178ZM4.11065 6.65417H5.79156L5.84759 6.5792C6.10907 6.18557 6.53863 5.79194 6.74407 5.37957H2.20562L2.2243 5.45455C2.42974 6.11059 3.0274 6.59794 3.73712 6.63543L4.11065 6.65417Z" fill="#1B4C9B"/>
<path d="M43.3389 6.04688V16H41.2949V6.04688H43.3389ZM46.4014 6.04688V7.65332H38.2803V6.04688H46.4014ZM55.5547 10.791V11.2627C55.5547 12.0192 55.4521 12.6982 55.2471 13.2998C55.042 13.9014 54.7526 14.4141 54.3789 14.8379C54.0052 15.2572 53.5586 15.5785 53.0391 15.8018C52.5241 16.0251 51.9521 16.1367 51.3232 16.1367C50.6989 16.1367 50.127 16.0251 49.6074 15.8018C49.0924 15.5785 48.6458 15.2572 48.2676 14.8379C47.8893 14.4141 47.5954 13.9014 47.3857 13.2998C47.1807 12.6982 47.0781 12.0192 47.0781 11.2627V10.791C47.0781 10.0299 47.1807 9.35091 47.3857 8.75391C47.5908 8.15234 47.8802 7.63965 48.2539 7.21582C48.6322 6.79199 49.0788 6.46842 49.5938 6.24512C50.1133 6.02181 50.6852 5.91016 51.3096 5.91016C51.9385 5.91016 52.5104 6.02181 53.0254 6.24512C53.5449 6.46842 53.9915 6.79199 54.3652 7.21582C54.7435 7.63965 55.0352 8.15234 55.2402 8.75391C55.4499 9.35091 55.5547 10.0299 55.5547 10.791ZM53.4834 11.2627V10.7773C53.4834 10.2487 53.4355 9.78385 53.3398 9.38281C53.2441 8.98177 53.1029 8.64453 52.916 8.37109C52.7292 8.09766 52.5013 7.89258 52.2324 7.75586C51.9635 7.61458 51.6559 7.54395 51.3096 7.54395C50.9632 7.54395 50.6556 7.61458 50.3867 7.75586C50.1224 7.89258 49.8968 8.09766 49.71 8.37109C49.5277 8.64453 49.3887 8.98177 49.293 9.38281C49.1973 9.78385 49.1494 10.2487 49.1494 10.7773V11.2627C49.1494 11.7868 49.1973 12.2516 49.293 12.6572C49.3887 13.0583 49.5299 13.3978 49.7168 13.6758C49.9036 13.9492 50.1315 14.1566 50.4004 14.2979C50.6693 14.4391 50.9769 14.5098 51.3232 14.5098C51.6696 14.5098 51.9772 14.4391 52.2461 14.2979C52.515 14.1566 52.7406 13.9492 52.9229 13.6758C53.1051 13.3978 53.2441 13.0583 53.3398 12.6572C53.4355 12.2516 53.4834 11.7868 53.4834 11.2627ZM60.9072 12.4521H58.3711V10.8525H60.9072C61.2992 10.8525 61.6182 10.7887 61.8643 10.6611C62.1104 10.529 62.2904 10.3467 62.4043 10.1143C62.5182 9.88184 62.5752 9.61979 62.5752 9.32812C62.5752 9.0319 62.5182 8.75618 62.4043 8.50098C62.2904 8.24577 62.1104 8.04069 61.8643 7.88574C61.6182 7.73079 61.2992 7.65332 60.9072 7.65332H59.082V16H57.0312V6.04688H60.9072C61.6865 6.04688 62.3542 6.18815 62.9102 6.4707C63.4707 6.7487 63.8991 7.13379 64.1953 7.62598C64.4915 8.11816 64.6396 8.68099 64.6396 9.31445C64.6396 9.95703 64.4915 10.513 64.1953 10.9824C63.8991 11.4518 63.4707 11.8141 62.9102 12.0693C62.3542 12.3245 61.6865 12.4521 60.9072 12.4521ZM72.5898 6.04688V7.65332H68.1055V16H66.0615V6.04688H72.5898ZM81.5723 10.791V11.2627C81.5723 12.0192 81.4697 12.6982 81.2646 13.2998C81.0596 13.9014 80.7702 14.4141 80.3965 14.8379C80.0228 15.2572 79.5762 15.5785 79.0566 15.8018C78.5417 16.0251 77.9697 16.1367 77.3408 16.1367C76.7165 16.1367 76.1445 16.0251 75.625 15.8018C75.11 15.5785 74.6634 15.2572 74.2852 14.8379C73.9069 14.4141 73.613 13.9014 73.4033 13.2998C73.1982 12.6982 73.0957 12.0192 73.0957 11.2627V10.791C73.0957 10.0299 73.1982 9.35091 73.4033 8.75391C73.6084 8.15234 73.8978 7.63965 74.2715 7.21582C74.6497 6.79199 75.0964 6.46842 75.6113 6.24512C76.1309 6.02181 76.7028 5.91016 77.3271 5.91016C77.9561 5.91016 78.528 6.02181 79.043 6.24512C79.5625 6.46842 80.0091 6.79199 80.3828 7.21582C80.7611 7.63965 81.0527 8.15234 81.2578 8.75391C81.4674 9.35091 81.5723 10.0299 81.5723 10.791ZM79.501 11.2627V10.7773C79.501 10.2487 79.4531 9.78385 79.3574 9.38281C79.2617 8.98177 79.1204 8.64453 78.9336 8.37109C78.7467 8.09766 78.5189 7.89258 78.25 7.75586C77.9811 7.61458 77.6735 7.54395 77.3271 7.54395C76.9808 7.54395 76.6732 7.61458 76.4043 7.75586C76.14 7.89258 75.9144 8.09766 75.7275 8.37109C75.5452 8.64453 75.4062 8.98177 75.3105 9.38281C75.2148 9.78385 75.167 10.2487 75.167 10.7773V11.2627C75.167 11.7868 75.2148 12.2516 75.3105 12.6572C75.4062 13.0583 75.5475 13.3978 75.7344 13.6758C75.9212 13.9492 76.1491 14.1566 76.418 14.2979C76.6868 14.4391 76.9945 14.5098 77.3408 14.5098C77.6872 14.5098 77.9948 14.4391 78.2637 14.2979C78.5326 14.1566 78.7581 13.9492 78.9404 13.6758C79.1227 13.3978 79.2617 13.0583 79.3574 12.6572C79.4531 12.2516 79.501 11.7868 79.501 11.2627ZM86.9453 11.6318H84.3887L84.375 10.2236H86.5215C86.8997 10.2236 87.2096 10.1758 87.4512 10.0801C87.6927 9.97982 87.8727 9.83626 87.9912 9.64941C88.1143 9.45801 88.1758 9.22559 88.1758 8.95215C88.1758 8.64225 88.1165 8.3916 87.998 8.2002C87.8841 8.00879 87.7041 7.86979 87.458 7.7832C87.2165 7.69661 86.9043 7.65332 86.5215 7.65332H85.0996V16H83.0488V6.04688H86.5215C87.1003 6.04688 87.6175 6.10156 88.0732 6.21094C88.5335 6.32031 88.9232 6.48665 89.2422 6.70996C89.5612 6.93327 89.805 7.21582 89.9736 7.55762C90.1423 7.89486 90.2266 8.2959 90.2266 8.76074C90.2266 9.1709 90.1331 9.54915 89.9463 9.89551C89.764 10.2419 89.4746 10.5244 89.0781 10.7432C88.6862 10.9619 88.1735 11.0827 87.54 11.1055L86.9453 11.6318ZM86.8564 16H83.8281L84.6279 14.4004H86.8564C87.2165 14.4004 87.5104 14.3434 87.7383 14.2295C87.9661 14.111 88.1348 13.9515 88.2441 13.751C88.3535 13.5505 88.4082 13.3203 88.4082 13.0605C88.4082 12.7689 88.3581 12.516 88.2578 12.3018C88.1621 12.0876 88.0072 11.9235 87.793 11.8096C87.5788 11.6911 87.2962 11.6318 86.9453 11.6318H84.9697L84.9834 10.2236H87.4443L87.916 10.7773C88.5221 10.7682 89.0098 10.8753 89.3789 11.0986C89.7526 11.3174 90.0238 11.6022 90.1924 11.9531C90.3656 12.304 90.4521 12.68 90.4521 13.0811C90.4521 13.7191 90.3132 14.2568 90.0352 14.6943C89.7572 15.1273 89.3493 15.4531 88.8115 15.6719C88.2783 15.8906 87.6266 16 86.8564 16ZM100.166 10.791V11.2627C100.166 12.0192 100.063 12.6982 99.8584 13.2998C99.6533 13.9014 99.3639 14.4141 98.9902 14.8379C98.6165 15.2572 98.1699 15.5785 97.6504 15.8018C97.1354 16.0251 96.5635 16.1367 95.9346 16.1367C95.3102 16.1367 94.7383 16.0251 94.2188 15.8018C93.7038 15.5785 93.2572 15.2572 92.8789 14.8379C92.5007 14.4141 92.2067 13.9014 91.9971 13.2998C91.792 12.6982 91.6895 12.0192 91.6895 11.2627V10.791C91.6895 10.0299 91.792 9.35091 91.9971 8.75391C92.2021 8.15234 92.4915 7.63965 92.8652 7.21582C93.2435 6.79199 93.6901 6.46842 94.2051 6.24512C94.7246 6.02181 95.2965 5.91016 95.9209 5.91016C96.5498 5.91016 97.1217 6.02181 97.6367 6.24512C98.1562 6.46842 98.6029 6.79199 98.9766 7.21582C99.3548 7.63965 99.6465 8.15234 99.8516 8.75391C100.061 9.35091 100.166 10.0299 100.166 10.791ZM98.0947 11.2627V10.7773C98.0947 10.2487 98.0469 9.78385 97.9512 9.38281C97.8555 8.98177 97.7142 8.64453 97.5273 8.37109C97.3405 8.09766 97.1126 7.89258 96.8438 7.75586C96.5749 7.61458 96.2673 7.54395 95.9209 7.54395C95.5745 7.54395 95.2669 7.61458 94.998 7.75586C94.7337 7.89258 94.5081 8.09766 94.3213 8.37109C94.139 8.64453 94 8.98177 93.9043 9.38281C93.8086 9.78385 93.7607 10.2487 93.7607 10.7773V11.2627C93.7607 11.7868 93.8086 12.2516 93.9043 12.6572C94 13.0583 94.1413 13.3978 94.3281 13.6758C94.515 13.9492 94.7428 14.1566 95.0117 14.2979C95.2806 14.4391 95.5882 14.5098 95.9346 14.5098C96.2809 14.5098 96.5885 14.4391 96.8574 14.2979C97.1263 14.1566 97.3519 13.9492 97.5342 13.6758C97.7165 13.3978 97.8555 13.0583 97.9512 12.6572C98.0469 12.2516 98.0947 11.7868 98.0947 11.2627ZM105.402 10.9551V12.5H101.54V10.9551H105.402ZM115.273 6.04688V16H113.223V7.65332H109.224V16H107.173V6.04688H115.273ZM120.94 12.4521H118.404V10.8525H120.94C121.332 10.8525 121.651 10.7887 121.897 10.6611C122.144 10.529 122.324 10.3467 122.438 10.1143C122.551 9.88184 122.608 9.61979 122.608 9.32812C122.608 9.0319 122.551 8.75618 122.438 8.50098C122.324 8.24577 122.144 8.04069 121.897 7.88574C121.651 7.73079 121.332 7.65332 120.94 7.65332H119.115V16H117.064V6.04688H120.94C121.72 6.04688 122.387 6.18815 122.943 6.4707C123.504 6.7487 123.932 7.13379 124.229 7.62598C124.525 8.11816 124.673 8.68099 124.673 9.31445C124.673 9.95703 124.525 10.513 124.229 10.9824C123.932 11.4518 123.504 11.8141 122.943 12.0693C122.387 12.3245 121.72 12.4521 120.94 12.4521ZM134.264 10.791V11.2627C134.264 12.0192 134.161 12.6982 133.956 13.2998C133.751 13.9014 133.462 14.4141 133.088 14.8379C132.714 15.2572 132.268 15.5785 131.748 15.8018C131.233 16.0251 130.661 16.1367 130.032 16.1367C129.408 16.1367 128.836 16.0251 128.316 15.8018C127.801 15.5785 127.355 15.2572 126.977 14.8379C126.598 14.4141 126.304 13.9014 126.095 13.2998C125.89 12.6982 125.787 12.0192 125.787 11.2627V10.791C125.787 10.0299 125.89 9.35091 126.095 8.75391C126.3 8.15234 126.589 7.63965 126.963 7.21582C127.341 6.79199 127.788 6.46842 128.303 6.24512C128.822 6.02181 129.394 5.91016 130.019 5.91016C130.647 5.91016 131.219 6.02181 131.734 6.24512C132.254 6.46842 132.701 6.79199 133.074 7.21582C133.452 7.63965 133.744 8.15234 133.949 8.75391C134.159 9.35091 134.264 10.0299 134.264 10.791ZM132.192 11.2627V10.7773C132.192 10.2487 132.145 9.78385 132.049 9.38281C131.953 8.98177 131.812 8.64453 131.625 8.37109C131.438 8.09766 131.21 7.89258 130.941 7.75586C130.673 7.61458 130.365 7.54395 130.019 7.54395C129.672 7.54395 129.365 7.61458 129.096 7.75586C128.831 7.89258 128.606 8.09766 128.419 8.37109C128.237 8.64453 128.098 8.98177 128.002 9.38281C127.906 9.78385 127.858 10.2487 127.858 10.7773V11.2627C127.858 11.7868 127.906 12.2516 128.002 12.6572C128.098 13.0583 128.239 13.3978 128.426 13.6758C128.613 13.9492 128.84 14.1566 129.109 14.2979C129.378 14.4391 129.686 14.5098 130.032 14.5098C130.379 14.5098 130.686 14.4391 130.955 14.2979C131.224 14.1566 131.45 13.9492 131.632 13.6758C131.814 13.3978 131.953 13.0583 132.049 12.6572C132.145 12.2516 132.192 11.7868 132.192 11.2627ZM136.677 6.04688H138.413L140.97 13.3545L143.526 6.04688H145.263L141.667 16H140.272L136.677 6.04688ZM135.74 6.04688H137.47L137.784 13.1699V16H135.74V6.04688ZM144.47 6.04688H146.206V16H144.155V13.1699L144.47 6.04688ZM149.357 9.67676H151.682C152.461 9.67676 153.133 9.80664 153.698 10.0664C154.268 10.3262 154.703 10.6908 155.004 11.1602C155.309 11.6296 155.462 12.1764 155.462 12.8008C155.462 13.2747 155.375 13.7077 155.202 14.0996C155.029 14.487 154.778 14.8242 154.45 15.1113C154.122 15.3939 153.726 15.6126 153.261 15.7676C152.796 15.9225 152.27 16 151.682 16H148.018V6.04688H150.075V14.4004H151.682C152.069 14.4004 152.39 14.3275 152.646 14.1816C152.905 14.0358 153.099 13.8421 153.227 13.6006C153.354 13.3545 153.418 13.0833 153.418 12.7871C153.418 12.5046 153.354 12.2493 153.227 12.0215C153.099 11.7891 152.905 11.6068 152.646 11.4746C152.39 11.3424 152.069 11.2764 151.682 11.2764H149.357V9.67676ZM158.388 6.04688V16H156.344V6.04688H158.388ZM160.151 6.04688H162.209V14.4004H164.984V6.04688H167.035V14.4004H169.783V6.04688H171.827V16H160.151V6.04688ZM180.345 6.04688V7.65332H175.396V6.04688H180.345ZM181.808 6.04688V16H179.757V6.04688H181.808ZM175.136 6.04688H177.18L176.927 11.0439C176.89 11.7913 176.82 12.4408 176.715 12.9922C176.615 13.5436 176.478 14.013 176.305 14.4004C176.132 14.7832 175.917 15.0931 175.662 15.3301C175.411 15.5625 175.115 15.7334 174.773 15.8428C174.432 15.9476 174.042 16 173.604 16H173.099V14.4004L173.358 14.3799C173.582 14.3571 173.778 14.2979 173.946 14.2021C174.115 14.1064 174.258 13.9629 174.377 13.7715C174.5 13.5801 174.6 13.3363 174.678 13.04C174.76 12.7393 174.824 12.3724 174.869 11.9395C174.919 11.5065 174.953 11.0007 174.972 10.4219L175.136 6.04688ZM190.271 14.4004V16H184.973V14.4004H190.271ZM185.643 6.04688V16H183.592V6.04688H185.643ZM189.58 10.1006V11.6592H184.973V10.1006H189.58ZM190.264 6.04688V7.65332H184.973V6.04688H190.264ZM198.104 10.1006V11.7002H192.909V10.1006H198.104ZM193.518 6.04688V16H191.467V6.04688H193.518ZM199.567 6.04688V16H197.523V6.04688H199.567ZM207.989 10.1006V11.7002H202.794V10.1006H207.989ZM203.402 6.04688V16H201.352V6.04688H203.402ZM209.452 6.04688V16H207.408V6.04688H209.452ZM215.406 7.74902L212.699 16H210.519L214.217 6.04688H215.604L215.406 7.74902ZM217.655 16L214.941 7.74902L214.723 6.04688H216.124L219.843 16H217.655ZM217.532 12.2949V13.9014H212.275V12.2949H217.532ZM226.057 12.3838H223.35L222.659 12.0967C221.88 11.8506 221.283 11.4814 220.868 10.9893C220.458 10.4971 220.253 9.87044 220.253 9.10938C220.253 8.43945 220.401 7.87891 220.697 7.42773C220.998 6.97201 221.422 6.62793 221.969 6.39551C222.52 6.16309 223.174 6.04688 223.931 6.04688H227.403V16H225.346V7.65332H223.931C223.37 7.65332 222.958 7.79232 222.693 8.07031C222.429 8.34831 222.297 8.74251 222.297 9.25293C222.297 9.62663 222.358 9.93424 222.481 10.1758C222.604 10.4128 222.785 10.5905 223.021 10.709C223.258 10.8229 223.557 10.8799 223.917 10.8799H226.05L226.057 12.3838ZM224.081 11.5566L221.873 16H219.651L221.866 11.5566H224.081ZM46.9961 24.0469V34H44.9453V25.6533H40.9463V34H38.8955V24.0469H46.9961ZM52.834 25.749L50.127 34H47.9463L51.6445 24.0469H53.0322L52.834 25.749ZM55.083 34L52.3691 25.749L52.1504 24.0469H53.5518L57.2705 34H55.083ZM54.96 30.2949V31.9014H49.7031V30.2949H54.96ZM64.9541 24.0469V25.6533H60.0049V24.0469H64.9541ZM66.417 24.0469V34H64.3662V24.0469H66.417ZM59.7451 24.0469H61.7891L61.5361 29.0439C61.4997 29.7913 61.429 30.4408 61.3242 30.9922C61.224 31.5436 61.0872 32.013 60.9141 32.4004C60.7409 32.7832 60.5267 33.0931 60.2715 33.3301C60.0208 33.5625 59.7246 33.7334 59.3828 33.8428C59.041 33.9476 58.6514 34 58.2139 34H57.708V32.4004L57.9678 32.3799C58.1911 32.3571 58.387 32.2979 58.5557 32.2021C58.7243 32.1064 58.8678 31.9629 58.9863 31.7715C59.1094 31.5801 59.2096 31.3363 59.2871 31.04C59.3691 30.7393 59.4329 30.3724 59.4785 29.9395C59.5286 29.5065 59.5628 29.0007 59.5811 28.4219L59.7451 24.0469ZM72.3711 25.749L69.6641 34H67.4834L71.1816 24.0469H72.5693L72.3711 25.749ZM74.6201 34L71.9062 25.749L71.6875 24.0469H73.0889L76.8076 34H74.6201ZM74.4971 30.2949V31.9014H69.2402V30.2949H74.4971ZM81.333 24.0469V34H79.2891V24.0469H81.333ZM84.3955 24.0469V25.6533H76.2744V24.0469H84.3955ZM88.873 25.749L86.166 34H83.9854L87.6836 24.0469H89.0713L88.873 25.749ZM91.1221 34L88.4082 25.749L88.1895 24.0469H89.5908L93.3096 34H91.1221ZM90.999 30.2949V31.9014H85.7422V30.2949H90.999ZM104.254 24.0469V25.6533H99.7695V34H97.7256V24.0469H104.254ZM106.141 28.9551V30.5H102.278V28.9551H106.141ZM109.962 24.0469V34H107.911V24.0469H109.962ZM115.827 24.0469L112.013 29.8916H109.504L109.244 28.0664H110.919L113.339 24.0469H115.827ZM113.715 34L110.926 29.5498L112.348 28.0869L116.148 34H113.715ZM124.488 25.749L121.781 34H119.601L123.299 24.0469H124.687L124.488 25.749ZM126.737 34L124.023 25.749L123.805 24.0469H125.206L128.925 34H126.737ZM126.614 30.2949V31.9014H121.357V30.2949H126.614ZM136.485 28.1006V29.7002H131.29V28.1006H136.485ZM131.898 24.0469V34H129.848V24.0469H131.898ZM137.948 24.0469V34H135.904V24.0469H137.948ZM143.902 25.749L141.195 34H139.015L142.713 24.0469H144.101L143.902 25.749ZM146.151 34L143.438 25.749L143.219 24.0469H144.62L148.339 34H146.151ZM146.028 30.2949V31.9014H140.771V30.2949H146.028ZM157.369 24.0469V34H155.318V25.6533H151.319V34H149.269V24.0469H157.369ZM163.207 25.749L160.5 34H158.319L162.018 24.0469H163.405L163.207 25.749ZM165.456 34L162.742 25.749L162.523 24.0469H163.925L167.644 34H165.456ZM165.333 30.2949V31.9014H160.076V30.2949H165.333Z" fill="#1B4C9B"/>
</svg>
